<svg xmlns="http://www.w3.org/2000/svg" width="32" height="32" viewBox="0 0 32 32">
  <defs>
    <linearGradient id="gradient" x1="0%" y1="0%" x2="100%" y2="100%">
      <stop offset="0%" stop-color="#0097b2" />
      <stop offset="100%" stop-color="#34c759" />
    </linearGradient>
  </defs>
  <rect width="32" height="32" rx="8" fill="url(#gradient)"/>
  <path d="M11 13c0-3.3 2.7-6 6-6s6 2.7 6 6-2.7 6-6 6-6-2.7-6-6zm6 8c-4.4 0-8 3.6-8 8h16c0-4.4-3.6-8-8-8zm0-16c4.4 0 8 3.6 8 8s-3.6 8-8 8-8-3.6-8-8 3.6-8 8-8z" fill="white" />
  <path d="M17 13a2 2 0 11-4 0 2 2 0 014 0z" fill="white" />
</svg>